<?xml version="1.0" standalone="no"?>
<!DOCTYPE svg PUBLIC "-//W3C//DTD SVG 20010904//EN"
 "http://www.w3.org/TR/2001/REC-SVG-20010904/DTD/svg10.dtd">
<svg version="1.0" xmlns="http://www.w3.org/2000/svg"
 width="757.000000pt" height="264.000000pt" viewBox="0 0 757.000000 264.000000"
 preserveAspectRatio="xMidYMid meet">

<g transform="translate(0.000000,264.000000) scale(0.100000,-0.100000)"
fill="#000000" stroke="none">
<path d="M3157 2455 c-68 -24 -208 -115 -268 -174 -38 -38 -159 -190 -159
-200 0 -5 -17 -15 -37 -22 -92 -30 -166 -107 -213 -222 -19 -44 -21 -60 -12
-69 10 -10 27 3 80 55 37 37 73 67 80 67 6 0 12 -12 12 -27 0 -32 34 -93 51
-93 7 0 23 12 36 26 31 33 39 26 16 -15 -17 -31 -17 -32 1 -46 11 -8 41 -15
68 -15 60 0 61 -11 8 -100 -62 -105 -18 -108 84 -6 74 74 106 135 106 201 0
39 7 56 38 98 100 135 159 293 169 455 7 114 8 112 -60 87z m29 -105 c-6 -73
-42 -194 -78 -270 -38 -77 -98 -160 -116 -160 -24 0 -120 -99 -124 -130 l-4
-25 -11 26 c-16 38 -68 86 -108 100 -19 7 -35 17 -35 21 0 4 16 37 35 72 19
36 35 75 35 86 0 42 97 159 200 242 56 45 169 108 194 108 17 0 18 -6 12 -70z"/>
<path d="M1514 2220 c-186 -20 -360 -102 -504 -237 -135 -127 -243 -304 -264
-433 -3 -19 -11 -55 -18 -80 -8 -25 -15 -90 -17 -145 l-3 -99 -45 -51 c-49
-56 -101 -156 -105 -201 -3 -45 19 -88 53 -103 17 -7 32 -12 33 -10 2 2 9 28
15 57 13 64 59 164 72 160 6 -2 21 -33 33 -70 13 -37 39 -96 59 -130 l34 -63
64 3 c351 15 790 181 1182 445 110 73 268 192 317 237 19 18 45 39 58 48 27
18 24 42 -15 130 -57 130 -176 277 -297 369 -67 51 -211 122 -296 146 -60 17
-207 38 -255 36 -16 -1 -62 -5 -101 -9z m57 -115 c12 -32 17 -35 50 -35 50 0
56 -14 18 -41 -29 -20 -30 -25 -24 -65 l6 -44 -35 21 -36 21 -30 -22 c-39 -28
-45 -22 -30 26 12 35 11 37 -19 61 -42 33 -39 43 13 43 42 0 44 1 50 35 4 19
11 35 16 35 5 0 14 -16 21 -35z m253 -279 c6 -31 10 -34 54 -41 l47 -7 -34
-29 c-33 -27 -34 -30 -23 -66 6 -20 9 -39 7 -41 -2 -2 -16 5 -31 17 -33 26
-39 26 -74 1 -34 -24 -41 -18 -28 28 9 34 8 37 -22 62 -28 23 -30 28 -16 33
10 4 31 7 47 7 16 0 29 4 29 9 0 19 20 61 29 61 5 0 12 -15 15 -34z m-607 -33
c8 -36 11 -38 51 -41 48 -4 53 -14 16 -39 -24 -15 -26 -21 -20 -64 l7 -48 -39
22 -39 21 -32 -23 c-18 -13 -34 -21 -36 -19 -2 2 0 21 5 43 9 37 7 42 -23 70
l-31 30 45 3 c44 3 47 5 58 42 15 50 27 51 38 3z m446 -213 c3 -13 14 -20 28
-20 21 0 21 -1 5 -19 -11 -13 -15 -27 -11 -40 7 -23 -4 -28 -22 -10 -8 8 -17
8 -31 0 -28 -15 -31 -14 -25 9 3 12 -2 29 -12 40 -17 19 -17 20 3 20 12 0 26
9 32 20 6 11 15 20 19 20 5 0 11 -9 14 -20z m-154 -285 l16 -50 58 -3 c31 -2
57 -6 57 -10 0 -3 -19 -23 -42 -42 l-42 -36 13 -46 c19 -67 12 -74 -37 -39
-23 17 -44 31 -46 31 -3 0 -26 -14 -51 -31 -25 -17 -49 -29 -52 -26 -3 4 3 29
13 57 l19 52 -43 36 c-23 21 -42 40 -42 44 0 4 26 8 57 10 l56 3 15 53 c8 29
19 51 24 50 6 -2 17 -26 27 -53z"/>
<path d="M2452 1352 c-111 -139 -178 -211 -310 -335 -127 -119 -335 -271 -419
-307 -11 -5 -24 -13 -27 -18 -8 -14 33 -3 62 16 20 13 25 13 32 2 5 -8 6 -18
3 -23 -3 -4 -4 -64 -4 -133 1 -91 -1 -124 -10 -124 -7 0 -10 -3 -7 -6 3 -3 26
0 49 6 24 7 56 14 71 15 59 8 203 82 297 154 144 109 266 293 317 477 26 97
41 267 27 328 l-8 39 -73 -91z"/>
</g>
</svg>
