<?xml version="1.0" standalone="no"?>
<!DOCTYPE svg PUBLIC "-//W3C//DTD SVG 20010904//EN"
 "http://www.w3.org/TR/2001/REC-SVG-20010904/DTD/svg10.dtd">
<svg version="1.0" xmlns="http://www.w3.org/2000/svg"
 width="1200.000000pt" height="630.000000pt" viewBox="0 0 1200.000000 630.000000"
 preserveAspectRatio="xMidYMid meet">

<g transform="translate(0.000000,630.000000) scale(0.100000,-0.100000)"
fill="#000000" stroke="none">
<path d="M4540 4375 l0 -175 240 0 240 0 0 175 0 175 -240 0 -240 0 0 -175z"/>
<path d="M5760 4300 c0 -137 -2 -250 -5 -250 -3 0 -25 10 -48 22 -37 20 -60
23 -199 26 -153 4 -158 3 -217 -23 -71 -32 -131 -92 -155 -156 -15 -40 -16
-112 -14 -824 l3 -780 23 -50 c28 -61 55 -90 107 -118 37 -20 54 -22 240 -22
215 0 254 7 295 50 32 34 47 31 67 -10 l17 -35 178 0 178 0 0 1210 0 1210
-235 0 -235 0 0 -250z m-16 -522 c14 -20 16 -99 16 -656 0 -651 -1 -660 -39
-689 -17 -13 -60 -17 -86 -7 -19 8 -42 50 -45 84 -1 14 -2 298 -1 631 1 597 1
607 22 633 17 22 28 26 69 26 39 0 52 -4 64 -22z"/>
<path d="M4540 3120 l0 -980 240 0 240 0 0 974 0 973 -37 7 c-21 3 -129 6
-240 6 l-203 0 0 -980z"/>
<path d="M6347 4093 c-4 -3 -7 -534 -7 -1180 l0 -1173 240 0 240 0 0 220 c0
161 3 220 12 220 6 0 41 -12 77 -27 59 -25 78 -27 181 -27 193 1 286 44 345
159 l30 59 0 745 c0 681 -2 751 -17 802 -23 74 -89 148 -160 180 -49 22 -65
24 -223 24 l-170 0 -75 -38 c-68 -34 -76 -36 -85 -20 -5 9 -20 27 -32 40 -21
22 -28 23 -186 23 -90 0 -167 -3 -170 -7z m609 -301 c33 -21 34 -50 34 -676 0
-437 -3 -632 -11 -649 -23 -50 -95 -62 -135 -22 l-24 25 2 648 c3 532 5 652
17 665 14 18 95 24 117 9z"/>
</g>
</svg>
